<svg width="145" height="149" viewBox="0 0 145 149" fill="none" xmlns="http://www.w3.org/2000/svg">
<ellipse cx="4.07303" cy="145.583" rx="4.07303" ry="3.41743" fill="#171C23"/>
<ellipse cx="38.2865" cy="145.583" rx="4.07303" ry="3.41743" fill="#171C23"/>
<ellipse cx="72.5" cy="145.583" rx="4.07303" ry="3.41743" fill="#171C23"/>
<ellipse cx="106.713" cy="145.583" rx="4.07303" ry="3.41743" fill="#171C23"/>
<ellipse cx="140.927" cy="145.583" rx="4.07303" ry="3.41743" fill="#171C23"/>
<ellipse cx="4.07303" cy="118.243" rx="4.07303" ry="3.41743" fill="#171C23"/>
<ellipse cx="38.2865" cy="118.243" rx="4.07303" ry="3.41743" fill="#171C23"/>
<ellipse cx="72.5" cy="118.243" rx="4.07303" ry="3.41743" fill="#171C23"/>
<ellipse cx="106.713" cy="118.243" rx="4.07303" ry="3.41743" fill="#171C23"/>
<ellipse cx="140.927" cy="118.243" rx="4.07303" ry="3.41743" fill="#171C23"/>
<ellipse cx="4.07303" cy="60.8303" rx="4.07303" ry="3.41743" fill="#171C23"/>
<ellipse cx="38.2865" cy="60.8303" rx="4.07303" ry="3.41743" fill="#171C23"/>
<ellipse cx="72.5" cy="60.8303" rx="4.07303" ry="3.41743" fill="#171C23"/>
<ellipse cx="106.713" cy="60.8303" rx="4.07303" ry="3.41743" fill="#171C23"/>
<ellipse cx="140.927" cy="60.8303" rx="4.07303" ry="3.41743" fill="#171C23"/>
<ellipse cx="4.07303" cy="89.5368" rx="4.07303" ry="3.41743" fill="#171C23"/>
<ellipse cx="38.2865" cy="89.5368" rx="4.07303" ry="3.41743" fill="#171C23"/>
<ellipse cx="72.5" cy="89.5368" rx="4.07303" ry="3.41743" fill="#171C23"/>
<ellipse cx="106.713" cy="89.5368" rx="4.07303" ry="3.41743" fill="#171C23"/>
<ellipse cx="140.927" cy="89.5368" rx="4.07303" ry="3.41743" fill="#171C23"/>
<ellipse cx="4.07303" cy="3.41749" rx="4.07303" ry="3.41743" fill="#171C23"/>
<ellipse cx="38.2865" cy="3.41749" rx="4.07303" ry="3.41743" fill="#171C23"/>
<ellipse cx="72.5" cy="3.41749" rx="4.07303" ry="3.41743" fill="#171C23"/>
<ellipse cx="106.713" cy="3.41749" rx="4.07303" ry="3.41743" fill="#171C23"/>
<ellipse cx="140.927" cy="3.41749" rx="4.07303" ry="3.41743" fill="#171C23"/>
<ellipse cx="4.07303" cy="32.1239" rx="4.07303" ry="3.41743" fill="#171C23"/>
<ellipse cx="38.2865" cy="32.1239" rx="4.07303" ry="3.41743" fill="#171C23"/>
<ellipse cx="72.5" cy="32.1239" rx="4.07303" ry="3.41743" fill="#171C23"/>
<ellipse cx="106.713" cy="32.1239" rx="4.07303" ry="3.41743" fill="#171C23"/>
<ellipse cx="140.927" cy="32.1239" rx="4.07303" ry="3.41743" fill="#171C23"/>
</svg>
